<?xml version="1.0" encoding="utf-8"?>
<!-- Generator: Adobe Illustrator 17.1.0, SVG Export Plug-In . SVG Version: 6.00 Build 0)  -->
<!DOCTYPE svg PUBLIC "-//W3C//DTD SVG 1.1//EN" "http://www.w3.org/Graphics/SVG/1.1/DTD/svg11.dtd">
<svg version="1.1" id="Layer_1" xmlns="http://www.w3.org/2000/svg" xmlns:xlink="http://www.w3.org/1999/xlink" x="0px" y="0px"
	 viewBox="0 0 266.7 266.5" enable-background="new 0 0 266.7 266.5" xml:space="preserve">
<path fill="#FFFFFF" d="M266.7,41.9V224c-4.7,39.1-40.8,42.5-40.8,42.5H37.1c-41.7-13.1-36.9-50.7-36.9-50.7V49.8
	C0.2,2.3,42.7,0,42.7,0h179.2C221.9,0,261.8,0,266.7,41.9z"/>
<path fill="#231F20" d="M143.2,239.8V133.3h32.2V98.1l-32.2-0.4l0.5-14.4c0,0,0.3-10,12.2-11.6l19.5-0.7V36h-41.8
	c0,0-33.1,2.1-36.9,38.3v23.1H67.1v35.9h29.7v106.5H143.2z"/>
</svg>
