<?xml version="1.0" encoding="utf-8"?>
<!-- Generator: Adobe Illustrator 17.1.0, SVG Export Plug-In . SVG Version: 6.00 Build 0)  -->
<!DOCTYPE svg PUBLIC "-//W3C//DTD SVG 1.1//EN" "http://www.w3.org/Graphics/SVG/1.1/DTD/svg11.dtd">
<svg version="1.1" id="Layer_1" xmlns="http://www.w3.org/2000/svg" xmlns:xlink="http://www.w3.org/1999/xlink" x="0px" y="0px"
	 viewBox="0 0 266.7 266.5" enable-background="new 0 0 266.7 266.5" xml:space="preserve">
<g>
	<path fill="#FFFFFF" d="M266.7,41.9V224c-4.7,39.1-40.8,42.5-40.8,42.5H37.1c-41.7-13.1-36.9-50.7-36.9-50.7V49.8
		C0.2,2.3,42.7,0,42.7,0h179.2C221.9,0,261.8,0,266.7,41.9z"/>
</g>
<path fill="#231F20" d="M113.4,32.6c0,0,1.3,37.3-40.1,55.7v25.5H98l0.2,79.7c0,0-0.2,29.7,39.5,32.2c0,0,23.5,2.9,55.9-6.9v-30.4
	c0,0-52.4,22.8-55.1-13.5l0.2-61.1h49.9l0.2-30.8l-49.5-0.2V32.6H113.4z"/>
</svg>
