<?xml version="1.0" encoding="utf-8"?>
<!-- Generator: Adobe Illustrator 17.1.0, SVG Export Plug-In . SVG Version: 6.00 Build 0)  -->
<!DOCTYPE svg PUBLIC "-//W3C//DTD SVG 1.1//EN" "http://www.w3.org/Graphics/SVG/1.1/DTD/svg11.dtd">
<svg version="1.1" id="Layer_1" xmlns="http://www.w3.org/2000/svg" xmlns:xlink="http://www.w3.org/1999/xlink" x="0px" y="0px"
	 viewBox="0 0 268 267.9" enable-background="new 0 0 268 267.9" xml:space="preserve">
<path fill="#FFFFFF" d="M268,42.2v183c-4.7,39.3-41,42.7-41,42.7H37.3c-41.9-13.1-37.1-50.9-37.1-50.9V50C0.2,2.3,42.9,0,42.9,0
	h180.1C223.1,0,263.1,0,268,42.2z"/>
<path fill="#231F20" d="M188.9,79.2c0,0,18.4-5.2,20.8-8.2c0,0,0.1,7.7-13.6,18.4c0,0-1,0.6,0.9,0.6c0,0,12.9-1.5,17.2-5.2
	c0,0-5.5,9.8-16.1,16.8c0,0,7.7,42.1-36,79.3c0,0-48.8,42.4-108.6,3.3c0,0,23.2,4.7,49-12.7c0,0,0.8-0.9-0.5-0.8
	c0,0-19.8,2.2-29.6-21.1c-0.2-0.5-0.4-1.4-0.6-1.9c0,0,6.4,2,14.9-0.1c0,0-26-3.9-26.4-32.5c0,0,4.6,3.5,14.9,4.1
	c0,0-24.1-15.8-10.1-43.8c0,0,22.3,30.4,67.8,33.6c0,0-5.5-20.7,11.9-33.5C144.7,75.6,168.2,57,188.9,79.2z"/>
</svg>
